<svg xmlns="http://www.w3.org/2000/svg" width="288.533" height="103.533" viewBox="155.983 46 288.533 103.533"><g data-name="Stanislas_Pijnacker_kleur"><g data-name="Group 27"><path d="M430.92 141.016h7.043v-1.665c-.295.02-.617.037-.973.048-.357.01-.703.027-1.039.048.062-.398.1-.792.11-1.18.01-.386.017-.77.017-1.147v-6.884a8.201 8.201 0 0 1 1.083-1.635 5.804 5.804 0 0 1 1.398-1.21c.504-.304 1.007-.455 1.508-.455-.02.545.13.973.456 1.288.325.315.705.483 1.148.504.442 0 .791-.1 1.052-.298.263-.199.452-.435.565-.706.113-.27.171-.514.171-.723 0-.775-.236-1.337-.706-1.683-.473-.346-1.031-.517-1.682-.517-.672 0-1.316.147-1.933.439a7.142 7.142 0 0 0-1.713 1.147 8.71 8.71 0 0 0-1.381 1.587 236.04 236.04 0 0 0-.062-1.761c-.02-.525-.051-.932-.096-1.227h-1.13c-.21.209-.546.408-1.008.596-.463.189-1.13.285-2.012.285h-1.069v1.665c.336-.02.703-.034 1.1-.048.398-.01.775-.027 1.131-.048-.062.377-.1.76-.11 1.148-.01.387-.013.75-.013 1.086v6.538c0 .693-.028 1.3-.08 1.823-.05.525-.205.933-.455 1.227-.25.295-.692.439-1.32.439v1.32Zm-12.054-13.628c.712-.702 1.624-1.052 2.734-1.052.713 0 1.299.189 1.762.565.459.377.801.885 1.02 1.525.22.638.33 1.357.33 2.152h-7.262c.23-1.425.703-2.487 1.416-3.19m4.794 13.8a8.368 8.368 0 0 0 2.498-1.131c.819-.535 1.542-1.275 2.169-2.217l-.973-.85a5.825 5.825 0 0 1-1.464 1.353 7.27 7.27 0 0 1-1.823.864 6.119 6.119 0 0 1-1.809.298c-1.175 0-2.128-.305-2.861-.912-.734-.606-1.265-1.466-1.587-2.576-.325-1.11-.486-2.379-.486-3.804l10.814-.189c0-1.298-.178-2.405-.534-3.317-.357-.911-.843-1.655-1.463-2.234-.617-.576-1.32-1-2.104-1.271a7.622 7.622 0 0 0-2.499-.408c-1.572 0-2.953.394-4.15 1.179a8.082 8.082 0 0 0-2.782 3.098 8.835 8.835 0 0 0-.99 4.118c0 1.697.336 3.17 1.007 4.418.672 1.247 1.587 2.21 2.752 2.892 1.162.682 2.478 1.02 3.944 1.02.713-.003 1.49-.112 2.34-.332m-20.597-.17v-1.666c-.295.02-.617.037-.974.048-.356.01-.702.027-1.038.048.062-.398.1-.792.11-1.18.01-.386.017-.77.017-1.147v-3.584l1.1-.062c.25.27.552.651.898 1.13.346.484.726 1.022 1.148 1.622.421.6.88 1.23 1.384 1.901a30.302 30.302 0 0 0 1.683 2.043c.514.565 1.072.85 1.682.85h3.112v-1.32c-.336 0-.686-.126-1.052-.377a6.304 6.304 0 0 1-1.052-.911 11.167 11.167 0 0 1-.864-1.021c-.24-.326-.415-.549-.517-.675l-2.2-2.83a10.182 10.182 0 0 0-.943-1.087 3.827 3.827 0 0 0-1.038-.706l2.327-2.45a17.19 17.19 0 0 1 1.226-1.227 9.191 9.191 0 0 1 1.621-1.179 5.1 5.1 0 0 1 1.998-.644v-1.288h-6.192v1.634l1.98-.061c-.25.188-.503.407-.753.66l-.881.882-3.3 3.553h-1.35v-14.68h-1.196c-.127.147-.346.284-.661.408-.316.127-.75.236-1.306.329-.555.096-1.295.14-2.217.14v1.666c.315-.021.672-.038 1.07-.048.397-.01.774-.028 1.13-.048-.041.421-.069.812-.079 1.178-.01.367-.017.73-.017 1.087l-.03 14.21c0 .693-.028 1.3-.08 1.823-.051.525-.198.932-.438 1.227-.24.295-.675.439-1.306.439v1.319h6.998Zm-13.622.153c.806-.23 1.604-.616 2.389-1.161.785-.545 1.484-1.289 2.09-2.231l-1.007-.88c-.545.753-1.258 1.377-2.139 1.87-.88.494-1.792.74-2.734.74-1.049-.02-1.95-.335-2.704-.942-.754-.606-1.326-1.425-1.713-2.453-.387-1.025-.583-2.19-.583-3.489 0-2.032.435-3.588 1.306-4.667.87-1.08 1.943-1.628 3.221-1.652.27 0 .607.031 1.007.096.398.062.785.199 1.166.408.376.209.647.535.819.973a1.534 1.534 0 0 0-.347.644c-.061.24-.096.456-.096.645 0 .335.127.695.377 1.086.25.387.682.572 1.289.552.545 0 .963-.189 1.257-.566.292-.377.439-.819.439-1.32 0-.712-.236-1.37-.706-1.98-.473-.606-1.148-1.1-2.028-1.477-.881-.377-1.94-.565-3.177-.565-1.217 0-2.32.236-3.317.706a8.005 8.005 0 0 0-2.577 1.932 9.023 9.023 0 0 0-1.683 2.783 9.015 9.015 0 0 0-.596 3.252c0 1.696.35 3.142 1.052 4.338.703 1.196 1.642 2.111 2.814 2.752 1.172.637 2.463.96 3.865.96a8.613 8.613 0 0 0 2.316-.354m-17.418-6.017c-.01.514-.017.864-.017 1.052v.771c0 .24.01.476.031.706a7.19 7.19 0 0 1-1.665 1.179c-.566.28-1.217.425-1.95.425-.586 0-1.093-.168-1.525-.504-.428-.336-.665-.86-.706-1.573 0-.648.171-1.206.518-1.665.346-.46.801-.84 1.367-1.131a7.495 7.495 0 0 1 1.902-.661c.702-.148 1.387-.24 2.06-.285 0 .61-.004 1.172-.015 1.686m5.295 5.863v-1.665c-.336 0-.693.01-1.07.03l-1.1.062c.042-.438.073-.86.093-1.257.02-.398.03-.754.03-1.07 0-.774.004-1.507.018-2.2.01-.692.017-1.384.017-2.076v-2.17c0-2.031-.445-3.518-1.336-4.464-.891-.942-2.238-1.415-4.04-1.415-1.196 0-2.276.168-3.239.503-.963.336-1.723.799-2.278 1.385-.556.586-.833 1.257-.833 2.011 0 .46.13.864.394 1.21.26.346.644.517 1.148.517.606.02 1.038-.15 1.288-.517s.377-.696.377-.99c0-.189-.027-.395-.078-.614a1.2 1.2 0 0 0-.33-.582 2.518 2.518 0 0 1 1.258-1.087 3.943 3.943 0 0 1 1.635-.298c.819 0 1.418.185 1.809.552.387.367.644.84.771 1.415.127.576.189 1.2.189 1.871v1.854c-1.05 0-2.118.11-3.208.329-1.09.22-2.097.555-3.019 1.007-.922.453-1.665 1.032-2.234 1.745-.565.712-.85 1.552-.85 2.515 0 1.11.38 2.039 1.148 2.782.764.744 1.902 1.117 3.41 1.117.88 0 1.73-.185 2.546-.551.815-.367 1.583-.905 2.296-1.618.04.271.072.535.092.785.02.25.052.545.096.88h5Zm-27.39 0v-1.665c-.295.02-.614.037-.96.048-.346.01-.685.027-1.02.048a21.673 21.673 0 0 0 .127-2.327l-.001-7.134v-1.416c.439-.48.984-.89 1.635-1.226a4.262 4.262 0 0 1 1.98-.504c1.131-.02 1.953.387 2.468 1.227.514.84.78 2.086.801 3.742v4.4c0 .692-.027 1.298-.078 1.822-.052.525-.206.933-.456 1.227-.25.295-.692.439-1.32.439v1.32h7.012v-1.666c-.295.02-.614.037-.96.048-.346.01-.685.027-1.021.048a21.673 21.673 0 0 0 .127-2.327v-5.311c0-2.41-.415-4.181-1.24-5.312-.83-1.13-2.177-1.696-4.04-1.696-.546 0-1.118.089-1.714.267a9.243 9.243 0 0 0-3.221 1.714 50.51 50.51 0 0 1-.08-1.258c-.01-.168-.027-.346-.047-.535h-1.13c-.148.148-.36.285-.645.408-.285.127-.692.237-1.227.33-.534.095-1.271.14-2.217.14v1.665c.336-.02.696-.034 1.086-.048.388-.01.771-.027 1.148-.048-.061.377-.1.76-.11 1.148-.01.387-.017.75-.017 1.086l-.03 6.538c0 .693-.028 1.3-.08 1.824-.05.524-.205.932-.455 1.226-.25.295-.692.439-1.32.439v1.32h7.005Zm-11.353-19.539c.367-.408.552-.905.552-1.494 0-.586-.185-1.086-.552-1.494a1.766 1.766 0 0 0-1.367-.613c-.504 0-.953.205-1.35.613a2.058 2.058 0 0 0-.596 1.494c0 .586.188 1.086.565 1.494.377.408.836.613 1.384.613.542 0 .997-.202 1.364-.613m-2.642 27.16c.932-.596 1.672-1.525 2.217-2.782.545-1.258.816-2.862.816-4.811v-16.065h-1.162c-.147.147-.373.285-.675.408-.305.127-.74.236-1.306.329-.565.096-1.319.14-2.261.14v1.666c.336-.02.696-.035 1.086-.048.387-.01.771-.028 1.148-.048-.041.418-.075.812-.096 1.179-.02.366-.03.73-.03 1.086v14.43a10.8 10.8 0 0 1-.141 1.713c-.096.576-.27 1.052-.535 1.43-.264.376-.665.564-1.21.564-.25 0-.493-.05-.722-.157a.603.603 0 0 0 .03-.189v-.188c0-.356-.126-.703-.377-1.038-.25-.336-.637-.494-1.161-.473-.504.02-.891.205-1.165.551-.271.347-.408.727-.408 1.148 0 .525.226.994.675 1.416.452.418 1.158.627 2.121.627 1.172.01 2.224-.288 3.156-.888m-6.59-27.16c.367-.408.552-.905.552-1.494 0-.586-.185-1.086-.551-1.494a1.766 1.766 0 0 0-1.368-.613c-.503 0-.956.205-1.353.613a2.058 2.058 0 0 0-.597 1.494c0 .586.189 1.086.566 1.494.377.408.84.613 1.384.613.545 0 1-.202 1.368-.613m-4.702 19.54h7.011v-1.666c-.295.02-.613.037-.96.048-.345.01-.685.027-1.02.048.04-.398.072-.792.096-1.18.02-.386.03-.77.03-1.147v-12.134h-1.196c-.147.147-.373.284-.675.408-.305.127-.733.236-1.288.329-.555.096-1.306.14-2.248.14v1.666c.336-.021.702-.035 1.1-.048.397-.01.774-.028 1.13-.048a28.52 28.52 0 0 0-.095 1.178c-.02.367-.031.73-.031 1.087v6.507c0 .692-.027 1.299-.079 1.823-.051.524-.205.932-.456 1.227-.25.295-.692.438-1.319.438v1.323Zm-14.44-17.196c0-.754.041-1.374.127-1.854.082-.48.27-.85.565-1.1.295-.25.754-.377 1.384-.377.775 0 1.508.082 2.2.25a5.184 5.184 0 0 1 1.84.833c.535.387.953.922 1.258 1.604.305.682.456 1.525.456 2.529 0 1.15-.25 2.148-.754 2.984a4.91 4.91 0 0 1-2.104 1.916c-.901.438-1.94.661-3.111.661-.357 0-.665-.003-.93-.017-.263-.01-.571-.038-.928-.079v-7.35Zm-5.53 17.195h8.268v-1.761c-.27.02-.572.037-.895.048-.325.01-.654.027-.99.048-.336.02-.65.04-.942.061.04-.27.068-.634.079-1.082.01-.453.017-.96.017-1.525v-3.962c.27.021.538.031.802.031.26 0 .496-.01.705-.03 1.95 0 3.568-.23 4.856-.693 1.289-.459 2.31-1.062 3.064-1.81.754-.743 1.288-1.548 1.603-2.418.316-.87.46-1.714.439-2.53-.02-1.445-.404-2.645-1.148-3.597-.744-.953-1.802-1.666-3.173-2.139-1.374-.473-3.043-.706-5.013-.706a484.349 484.349 0 0 0-7.673.066v1.73c.336-.02.713-.041 1.13-.062.419-.02.806-.04 1.163-.061-.02.315-.042.685-.062 1.117-.02.428-.03.877-.03 1.336v13.077c0 .774-.042 1.415-.128 1.919-.082.503-.277.88-.582 1.13-.305.25-.802.398-1.494.439v1.374Z" fill="#96377a" fill-rule="evenodd" data-name="Path 41"/></g><g data-name="Group 29"><g data-name="Group 28"><path d="M255.02 47.371c-2.307-1.247-4.918-1.871-7.837-1.871-2.793 0-5.308.613-7.553 1.84a14.502 14.502 0 0 0-3.235 2.413v-.7c0-.973-.294-1.754-.887-2.347s-1.374-.887-2.348-.887c-.932 0-1.703.294-2.316.887-.613.593-.918 1.374-.918 2.348l.04 28.787v.09c0 2.68-2.179 4.855-4.913 4.855a4.815 4.815 0 0 1-4.811-4.811v-.624l.04-14.149c0-3.34-.77-6.342-2.316-9.008-1.545-2.666-3.625-4.77-6.25-6.312-2.621-1.546-5.586-2.317-8.882-2.317-3.297 0-6.271.771-8.916 2.317a17.129 17.129 0 0 0-6.282 6.312c-1.545 2.666-2.316 5.667-2.316 9.008 0 3.345.706 6.336 2.125 8.978 1.415 2.646 3.35 4.74 5.804 6.282 2.45 1.545 5.223 2.316 8.314 2.316 3.087 0 5.856-.77 8.31-2.316 1.517-.956 2.813-2.145 3.933-3.523l.041 3.033c0 6.175 5.024 11.198 11.26 11.198 6.203 0 11.278-5.044 11.278-11.246 0 0 .007-.405.007-.576V59.457c0-1.566.421-2.95 1.271-4.157.847-1.206 1.988-2.169 3.427-2.888 1.436-.72 3.046-1.08 4.821-1.08 1.947 0 3.67.37 5.171 1.11 1.501.74 2.697 1.872 3.585 3.396.887 1.522 1.333 3.489 1.333 5.901v15.609c0 .932.305 1.703.918 2.316.613.614 1.384.919 2.316.919.932 0 1.703-.305 2.317-.919.613-.613.918-1.384.918-2.316V61.743c0-3.513-.665-6.473-1.998-8.886-1.326-2.409-3.145-4.239-5.451-5.486Zm-42.416 21.89c-.974 1.799-2.307 3.214-4 4.252-1.692 1.039-3.615 1.556-5.773 1.556-2.115 0-4.03-.517-5.744-1.556-1.713-1.034-3.067-2.453-4.06-4.252-.994-1.8-1.49-3.817-1.49-6.062 0-2.286.496-4.325 1.49-6.12.993-1.8 2.347-3.214 4.06-4.253 1.714-1.035 3.626-1.555 5.744-1.555 2.158 0 4.08.517 5.774 1.555 1.692 1.039 3.022 2.454 3.995 4.253.973 1.799 1.46 3.838 1.46 6.12.003 2.245-.483 4.263-1.456 6.062Z" fill-rule="evenodd" fill="url(&quot;#a&quot;)" transform="translate(34.182 16.092)" data-name="Path 42"/></g><path d="M130.104 54.357h-2.155c-1.354 0-2.499-.572-3.427-1.713-.932-1.141-1.395-2.56-1.395-4.253v-15.67h5.394c.887 0 1.607-.254 2.159-.761a2.486 2.486 0 0 0 .825-1.902c0-.846-.274-1.521-.825-2.028-.552-.508-1.272-.761-2.16-.761h-5.393v-9.136c0-.928-.295-1.69-.887-2.285-.593-.593-1.354-.888-2.286-.888-.932 0-1.693.295-2.286.888-.592.592-.887 1.357-.887 2.285v9.136h-2.92c-.887 0-1.607.253-2.155.76-.552.508-.826 1.186-.826 2.033 0 .76.274 1.394.826 1.901.548.508 1.268.761 2.155.761h2.92v15.674c0 2.327.486 4.42 1.46 6.281.973 1.86 2.306 3.33 3.995 4.41 1.693 1.08 3.595 1.618 5.713 1.618h1.14c1.1 0 1.998-.295 2.697-.888.7-.59 1.046-1.353 1.046-2.285 0-.929-.264-1.693-.792-2.286-.531-.596-1.175-.891-1.936-.891Z" fill-rule="evenodd" fill="url(&quot;#b&quot;)" transform="translate(83.114 36.166)" data-name="Path 43"/><path d="M442.238 47.16c-.932 0-1.703.295-2.316.888-.614.592-.922 1.374-.922 2.347V78.63c0 .932.305 1.703.922 2.316.613.614 1.384.919 2.316.919.97 0 1.755-.309 2.348-.919.592-.613.887-1.384.887-2.316V50.395c0-.973-.295-1.755-.887-2.347-.593-.59-1.378-.888-2.348-.888Z" fill-rule="evenodd" fill="url(&quot;#c&quot;)" transform="translate(-132.568 15)" data-name="Path 44"/><path d="M660.827 46.231c-2.687-1.583-5.72-2.371-9.098-2.371-3.379 0-6.425.792-9.132 2.371-2.707 1.583-4.853 3.739-6.436 6.467-1.58 2.73-2.371 5.804-2.371 9.228 0 3.423.723 6.49 2.176 9.197 1.453 2.707 3.434 4.852 5.945 6.432 2.512 1.583 5.35 2.371 8.516 2.371 3.163 0 6-.788 8.512-2.371 1.555-.98 2.882-2.197 4.03-3.608v2.47c0 .953.315 1.744.942 2.372.627.627 1.419.942 2.371.942.953 0 1.744-.312 2.371-.942.628-.628.943-1.42.943-2.372V61.926c0-3.424-.792-6.497-2.372-9.228-1.576-2.728-3.71-4.884-6.397-6.467Zm.911 21.904c-.997 1.84-2.36 3.293-4.095 4.352-1.734 1.062-3.704 1.593-5.914 1.593-2.166 0-4.126-.53-5.88-1.593-1.755-1.062-3.143-2.512-4.16-4.352-1.018-1.844-1.529-3.91-1.529-6.206 0-2.34.507-4.427 1.529-6.27 1.017-1.84 2.402-3.294 4.16-4.356 1.754-1.062 3.714-1.594 5.88-1.594 2.21 0 4.18.532 5.914 1.594 1.73 1.062 3.098 2.512 4.095 4.355.997 1.844 1.494 3.93 1.494 6.271 0 2.296-.496 4.362-1.494 6.206Z" fill-rule="evenodd" fill="url(&quot;#d&quot;)" transform="translate(-260.61 17.17)" data-name="Path 45"/><path d="M571.008 44.393h-2.775a3.568 3.568 0 0 1-3.564-3.567V13.618C564.665 6.11 558.556 0 551.048 0h-3.65a3.238 3.238 0 1 0 0 6.477h3.65c3.937 0 7.138 3.2 7.138 7.137v27.209c0 5.537 4.506 10.043 10.043 10.043h2.776a3.238 3.238 0 0 0 3.238-3.238 3.232 3.232 0 0 0-3.235-3.235Z" fill-rule="evenodd" fill="url(&quot;#e&quot;)" transform="translate(-201.693 46)" data-name="Path 46"/><path d="M440.417 0c-1.144 0-2.128.415-2.95 1.237-.826.826-1.237 1.81-1.237 2.95 0 1.142.411 2.125 1.237 2.95.826.827 1.81 1.238 2.95 1.238 1.142 0 2.125-.415 2.95-1.237.827-.826 1.238-1.81 1.238-2.95 0-1.142-.411-2.129-1.237-2.951-.826-.822-1.81-1.237-2.95-1.237Z" fill-rule="evenodd" fill="url(&quot;#f&quot;)" transform="translate(-130.748 46)" data-name="Path 47"/><path d="M505.182 62.609c-1.84-.974-4.345-1.775-7.518-2.413-2.285-.462-4.02-.939-5.202-1.429-1.185-.486-1.977-1.038-2.378-1.651a3.69 3.69 0 0 1-.603-2.06c0-1.227.644-2.159 1.936-2.793 1.292-.634 2.865-.952 4.73-.952 1.606 0 3.025.188 4.248.568 1.227.38 2.368 1.08 3.427 2.094.634.593 1.415.973 2.347 1.141.932.172 1.734.02 2.413-.445.675-.507 1.035-1.131 1.08-1.871.04-.74-.234-1.446-.827-2.125-1.268-1.566-2.98-2.792-5.14-3.68-2.155-.888-4.633-1.333-7.422-1.333-2.159 0-4.232.35-6.22 1.049-1.987.699-3.618 1.76-4.89 3.18-1.267 1.418-1.901 3.204-1.901 5.362 0 2.454.963 4.527 2.885 6.22 1.922 1.693 5.024 2.96 9.297 3.807 3.3.593 5.572 1.357 6.819 2.286 1.247.932 1.85 2.028 1.81 3.3-.045 1.27-.71 2.306-1.999 3.108-1.291.805-3.162 1.206-5.616 1.206-1.946 0-3.711-.35-5.298-1.049-1.586-.699-2.738-1.45-3.457-2.251-.593-.634-1.302-1.004-2.125-1.11-.826-.107-1.662.181-2.505.856-.72.549-1.13 1.258-1.237 2.125-.106.867.158 1.638.795 2.316 1.395 1.395 3.352 2.55 5.867 3.458 2.515.908 5.256 1.364 8.217 1.364 3.005 0 5.51-.466 7.518-1.395s3.533-2.176 4.568-3.742c1.035-1.566 1.556-3.32 1.556-5.267 0-1.693-.401-3.183-1.206-4.472-.806-1.295-2.128-2.43-3.969-3.402Z" fill-rule="evenodd" fill="url(&quot;#g&quot;)" transform="translate(-160.71 15.986)" data-name="Path 48"/><path d="M32.437 26.602c-2.844-2.588-6.812-4.14-11.905-4.654-3.337-.343-5.894-.939-7.669-1.795-1.775-.857-2.995-1.871-3.66-3.05-.664-1.176-.993-2.406-.993-3.69 0-2.523 1.07-4.397 3.207-5.617 2.139-1.22 4.79-1.806 7.957-1.765 1.796 0 3.358.247 4.685.737 1.326.493 2.48 1.165 3.464 2.022.983.856 1.82 1.905 2.501 3.145.47.812 1.176 1.371 2.118 1.67.94.297 1.82.191 2.632-.323.726-.47 1.144-1.124 1.25-1.957.107-.832-.14-1.72-.736-2.662A19.77 19.77 0 0 0 31.5 4.105C30.045 2.82 28.345 1.816 26.4 1.09 24.456.363 22.177 0 19.569 0c-3.337 0-6.363.514-9.08 1.539C7.77 2.567 5.623 4.064 4.039 6.03c-1.583 1.967-2.374 4.362-2.374 7.186 0 3.852 1.518 7.083 4.557 9.69 3.037 2.612 7.21 4.171 12.515 4.685 4.064.428 6.983 1.539 8.759 3.338 1.775 1.795 2.662 3.83 2.662 6.096 0 1.795-.534 3.307-1.604 4.523-1.069 1.22-2.47 2.149-4.204 2.793-1.734.64-3.626.963-5.678.963-1.84 0-3.595-.278-5.264-.833-1.669-.555-3.09-1.285-4.266-2.183-1.179-.898-2.022-1.881-2.536-2.95-.384-.812-.952-1.422-1.7-1.83-.75-.408-1.507-.524-2.278-.353-1.07.216-1.83.706-2.279 1.477-.449.77-.46 1.604-.03 2.501.856 2.012 2.203 3.787 4.043 5.325 1.84 1.54 3.999 2.738 6.48 3.595 2.48.857 5.092 1.285 7.83 1.285 2.31 0 4.544-.301 6.706-.898 2.159-.6 4.084-1.507 5.777-2.727A13.922 13.922 0 0 0 35.2 43.19c1.004-1.795 1.508-3.913 1.508-6.353-.004-4.235-1.426-7.648-4.27-10.235Z" fill-rule="evenodd" fill="url(&quot;#h&quot;)" transform="translate(155.995 46)" data-name="Path 49"/><path d="M784.594 64.681c-.823-1.32-2.177-2.48-4.061-3.478-1.885-.997-4.451-1.82-7.7-2.47-2.34-.477-4.115-.964-5.329-1.464-1.213-.497-2.025-1.062-2.436-1.69a3.77 3.77 0 0 1-.617-2.11c0-1.258.658-2.21 1.98-2.861 1.32-.652 2.934-.977 4.843-.977 1.648 0 3.098.195 4.355.586 1.258.39 2.426 1.103 3.51 2.145.65.607 1.452.997 2.405 1.168.952.175 1.778.024 2.47-.455.693-.518 1.063-1.158 1.107-1.916.041-.757-.24-1.484-.843-2.176-1.302-1.603-3.056-2.858-5.267-3.77-2.21-.907-4.742-1.363-7.604-1.363-2.21 0-4.334.356-6.37 1.073-2.039.716-3.704 1.799-5.003 3.248-1.299 1.453-1.95 3.283-1.95 5.49 0 2.512.984 4.636 2.958 6.37 1.97 1.734 5.143 3.033 9.52 3.9 3.378.61 5.708 1.387 6.986 2.34 1.278.953 1.895 2.08 1.854 3.379-.044 1.299-.726 2.36-2.05 3.183-1.322.826-3.237 1.237-5.75 1.237-1.994 0-3.803-.356-5.424-1.072-1.624-.713-2.806-1.484-3.543-2.306-.606-.648-1.333-1.028-2.176-1.138-.843-.106-1.703.185-2.566.877-.737.565-1.159 1.289-1.268 2.18-.11.887.16 1.679.812 2.37 1.429 1.43 3.433 2.612 6.01 3.544 2.58.932 5.384 1.398 8.416 1.398 3.077 0 5.644-.476 7.7-1.429 2.056-.952 3.615-2.23 4.681-3.834 1.062-1.604 1.593-3.403 1.593-5.394-.01-1.734-.421-3.262-1.243-4.585Z" fill-rule="evenodd" fill="url(&quot;#i&quot;)" transform="translate(-341.336 17.176)" data-name="Path 50"/></g></g><defs><linearGradient x1="-.827" y1=".5" x2="2.876" y2=".5" id="a"><stop stop-color="#194383" offset="0"/><stop stop-color="#154585" offset=".193"/><stop stop-color="#004b8c" offset=".393"/><stop stop-color="#005697" offset=".596"/><stop stop-color="#0064a8" offset=".8"/><stop stop-color="#0075bf" offset="1"/></linearGradient><linearGradient x1="-1.743" y1=".5" x2="11.268" y2=".5" id="b"><stop stop-color="#194383" offset="0"/><stop stop-color="#154585" offset=".193"/><stop stop-color="#004b8c" offset=".393"/><stop stop-color="#005697" offset=".596"/><stop stop-color="#0064a8" offset=".8"/><stop stop-color="#0075bf" offset="1"/></linearGradient><linearGradient x1="-23.282" y1=".5" x2="20.843" y2=".5" id="c"><stop stop-color="#194383" offset="0"/><stop stop-color="#154585" offset=".193"/><stop stop-color="#004b8c" offset=".393"/><stop stop-color="#005697" offset=".596"/><stop stop-color="#0064a8" offset=".8"/><stop stop-color="#0075bf" offset="1"/></linearGradient><linearGradient x1="-6.073" y1=".5" x2="1.904" y2=".5" id="d"><stop stop-color="#194383" offset="0"/><stop stop-color="#154585" offset=".193"/><stop stop-color="#004b8c" offset=".393"/><stop stop-color="#005697" offset=".596"/><stop stop-color="#0064a8" offset=".8"/><stop stop-color="#0075bf" offset="1"/></linearGradient><linearGradient x1="-6.207" y1=".5" x2="3.287" y2=".5" id="e"><stop stop-color="#194383" offset="0"/><stop stop-color="#154585" offset=".193"/><stop stop-color="#004b8c" offset=".393"/><stop stop-color="#005697" offset=".596"/><stop stop-color="#0064a8" offset=".8"/><stop stop-color="#0075bf" offset="1"/></linearGradient><linearGradient x1="-17.881" y1=".5" x2="16.223" y2=".5" id="f"><stop stop-color="#194383" offset="0"/><stop stop-color="#154585" offset=".193"/><stop stop-color="#004b8c" offset=".393"/><stop stop-color="#005697" offset=".596"/><stop stop-color="#0064a8" offset=".8"/><stop stop-color="#0075bf" offset="1"/></linearGradient><linearGradient x1="-5.794" y1=".5" x2="4.213" y2=".5" id="g"><stop stop-color="#194383" offset="0"/><stop stop-color="#154585" offset=".193"/><stop stop-color="#004b8c" offset=".393"/><stop stop-color="#005697" offset=".596"/><stop stop-color="#0064a8" offset=".8"/><stop stop-color="#0075bf" offset="1"/></linearGradient><linearGradient x1="-.007" y1=".5" x2="7.775" y2=".5" id="h"><stop stop-color="#194383" offset="0"/><stop stop-color="#154585" offset=".193"/><stop stop-color="#004b8c" offset=".393"/><stop stop-color="#005697" offset=".596"/><stop stop-color="#0064a8" offset=".8"/><stop stop-color="#0075bf" offset="1"/></linearGradient><linearGradient x1="-8.877" y1=".5" x2=".892" y2=".5" id="i"><stop stop-color="#194383" offset="0"/><stop stop-color="#154585" offset=".193"/><stop stop-color="#004b8c" offset=".393"/><stop stop-color="#005697" offset=".596"/><stop stop-color="#0064a8" offset=".8"/><stop stop-color="#0075bf" offset="1"/></linearGradient></defs></svg>